<?xml version="1.0" standalone="no"?>
<!DOCTYPE svg PUBLIC "-//W3C//DTD SVG 20010904//EN"
 "http://www.w3.org/TR/2001/REC-SVG-20010904/DTD/svg10.dtd">
<svg version="1.0" xmlns="http://www.w3.org/2000/svg"
 width="94.000000pt" height="94.000000pt" viewBox="0 0 94.000000 94.000000"
 preserveAspectRatio="xMidYMid meet">

<g transform="translate(0.000000,94.000000) scale(0.100000,-0.100000)"
fill="#000000" stroke="none">
<path d="M512 773 c-7 -3 -17 -16 -22 -29 -8 -19 -17 -24 -45 -24 -19 0 -35
-4 -35 -10 0 -6 64 -11 158 -12 l157 -3 3 -37 c5 -56 24 -46 20 10 l-3 47 -85
3 c-83 3 -86 4 -102 32 -17 30 -22 33 -46 23z m28 -38 c0 -8 -7 -15 -15 -15
-16 0 -20 12 -8 23 11 12 23 8 23 -8z"/>
<path d="M304 707 c-9 -24 1 -222 11 -222 6 0 11 44 13 108 3 106 3 107 27
107 14 0 25 5 25 10 0 15 -70 12 -76 -3z"/>
<path d="M443 618 c-18 -17 -25 -19 -37 -9 -23 20 -32 -8 -9 -31 20 -19 20
-19 51 7 18 15 32 33 32 41 0 20 -12 17 -37 -8z"/>
<path d="M510 630 c0 -6 33 -10 80 -10 47 0 80 4 80 10 0 6 -33 10 -80 10 -47
0 -80 -4 -80 -10z"/>
<path d="M515 580 c-3 -6 0 -13 8 -16 25 -9 90 0 95 14 5 15 -94 17 -103 2z"/>
<path d="M597 452 c-130 -130 -138 -141 -135 -173 3 -30 7 -34 35 -37 30 -3
42 6 134 103 56 58 104 103 107 101 2 -3 -9 -21 -27 -41 -36 -42 -37 -46 -13
-68 21 -19 38 -11 20 10 -9 11 -4 21 22 48 24 25 31 39 27 57 -5 16 1 30 20
50 l27 28 -21 28 c-11 15 -29 28 -39 30 -13 2 -62 -41 -157 -136z m173 93 c11
-13 8 -21 -15 -45 -31 -33 -45 -36 -63 -18 -9 9 -5 19 20 45 36 38 41 39 58
18z m-90 -91 c12 -13 1 -27 -71 -100 -81 -81 -119 -103 -119 -67 0 16 156 183
171 183 4 0 12 -7 19 -16z"/>
<path d="M445 490 c-12 -14 -25 -18 -41 -14 -29 8 -31 -7 -4 -31 20 -18 21
-18 55 15 19 18 32 37 29 42 -8 13 -19 10 -39 -12z"/>
<path d="M517 504 c-13 -13 5 -24 39 -24 24 0 34 5 34 15 0 10 -10 15 -33 15
-19 0 -37 -3 -40 -6z"/>
<path d="M275 446 c-46 -20 -68 -82 -45 -126 8 -15 5 -24 -15 -44 -29 -29 -33
-76 -9 -100 19 -20 193 -23 212 -4 22 22 15 85 -12 105 -22 16 -22 20 -9 50
32 79 -44 154 -122 119z m82 -38 c28 -26 30 -61 3 -88 -42 -42 -110 -14 -110
46 0 58 63 83 107 42z m37 -154 c21 -20 21 -64 1 -64 -9 0 -15 9 -15 25 0 16
-6 25 -15 25 -9 0 -15 -9 -15 -25 0 -22 -4 -25 -40 -25 -36 0 -40 3 -40 25 0
14 -4 25 -10 25 -5 0 -10 -11 -10 -25 0 -16 -6 -25 -15 -25 -18 0 -21 50 -3
68 18 18 143 16 162 -4z"/>
<path d="M516 452 c-3 -6 -1 -14 5 -17 15 -10 25 3 12 16 -7 7 -13 7 -17 1z"/>
<path d="M730 245 l0 -55 -136 0 c-104 0 -135 -3 -132 -12 6 -18 254 -24 274
-7 16 13 20 129 4 129 -5 0 -10 -25 -10 -55z"/>
</g>
</svg>
