<?xml version="1.0" standalone="no"?>
<!DOCTYPE svg PUBLIC "-//W3C//DTD SVG 20010904//EN"
 "http://www.w3.org/TR/2001/REC-SVG-20010904/DTD/svg10.dtd">
<svg version="1.0" xmlns="http://www.w3.org/2000/svg"
 width="96.000000pt" height="96.000000pt" viewBox="0 0 96.000000 96.000000"
 preserveAspectRatio="xMidYMid meet">

<g transform="translate(0.000000,96.000000) scale(0.100000,-0.100000)"
fill="#000000" stroke="none">
<path d="M250 853 c-73 -4 -100 -24 -100 -73 0 -48 9 -60 46 -60 l34 0 0 -84
0 -83 -75 -5 c-42 -3 -78 -7 -81 -10 -11 -12 -16 -150 -9 -261 l7 -116 36 -7
c51 -10 246 -10 305 -1 46 8 47 8 47 -17 0 -50 26 -55 240 -52 l195 3 3 136
c3 180 6 177 -151 177 l-113 0 1 80 c0 51 4 80 11 80 6 0 30 -14 53 -30 23
-17 46 -28 51 -25 14 9 30 75 30 128 0 46 -24 117 -39 117 -4 0 -25 -18 -46
-40 -21 -22 -44 -40 -51 -40 -7 0 -15 32 -22 80 -5 44 -15 87 -22 95 -10 12
-39 15 -149 13 -75 -1 -165 -3 -201 -5z m338 -30 c15 -28 24 -151 12 -158 -13
-8 -13 -92 0 -100 6 -3 10 -42 10 -86 l0 -79 -29 0 c-25 0 -29 4 -35 38 -3 20
-6 51 -6 68 0 36 -13 44 -67 44 l-34 0 2 63 3 62 -64 3 c-74 4 -80 -1 -80 -75
0 -50 -2 -53 -25 -53 l-25 0 0 124 c0 68 -3 131 -6 140 -7 17 27 21 218 24
103 2 118 0 126 -15z m-368 -12 c5 -11 10 -30 10 -43 0 -19 -5 -23 -27 -23
-23 1 -29 7 -31 29 -3 27 12 56 29 56 5 0 13 -9 19 -19z m534 -206 c-4 -33 -8
-63 -11 -67 -2 -4 -19 2 -38 15 -30 19 -35 28 -35 62 0 31 7 46 33 73 l32 33
12 -28 c8 -18 11 -49 7 -88z m-334 0 l0 -55 -50 0 -50 0 0 48 c0 27 3 52 7 55
3 4 26 7 50 7 l43 0 0 -55z m223 26 c5 -22 -11 -54 -24 -46 -5 4 -9 19 -9 36
0 33 25 41 33 10z m-123 -127 c0 -12 -30 -14 -177 -14 -98 0 -195 -3 -216 -6
-33 -6 -37 -4 -37 14 0 21 4 22 208 24 114 2 210 2 215 0 4 -2 7 -10 7 -18z
m0 -46 c0 -7 3 -23 6 -35 5 -18 2 -23 -12 -23 -37 0 -54 -29 -54 -95 0 -60 -1
-63 -27 -68 -17 -3 -34 0 -44 9 -20 18 -38 18 -45 0 -4 -10 -34 -16 -110 -21
-61 -4 -101 -11 -98 -17 6 -10 298 -3 315 8 5 3 9 -4 9 -15 0 -16 -10 -21 -57
-28 -73 -10 -293 -7 -304 4 -5 5 -10 69 -11 143 l-3 135 60 6 c33 3 131 6 218
7 120 2 157 -1 157 -10z m319 -95 c-29 -39 -134 -143 -144 -143 -12 0 -188
138 -193 151 -2 5 76 9 173 9 167 0 177 -1 164 -17z m41 -109 l0 -106 -37 30
c-21 16 -46 39 -57 51 -18 20 -18 21 30 75 27 30 52 55 57 55 4 1 7 -47 7
-105z m-292 18 l24 -18 -54 -40 c-29 -22 -59 -44 -65 -48 -10 -5 -13 15 -13
89 l0 96 43 -30 c23 -17 52 -39 65 -49z m71 -59 c29 -17 33 -17 61 -1 l31 18
64 -53 c35 -28 64 -56 64 -62 1 -6 -69 -11 -188 -12 -236 -3 -245 2 -144 76
37 28 71 51 75 51 3 0 20 -8 37 -17z"/>
<path d="M300 783 c0 -11 114 -23 209 -23 33 0 51 4 46 9 -14 13 -255 26 -255
14z"/>
<path d="M300 730 c0 -6 50 -10 131 -10 84 0 128 4 124 10 -4 6 -58 10 -131
10 -76 0 -124 -4 -124 -10z"/>
<path d="M480 670 c0 -5 16 -10 35 -10 19 0 35 5 35 10 0 6 -16 10 -35 10 -19
0 -35 -4 -35 -10z"/>
<path d="M480 630 c0 -5 18 -10 40 -10 22 0 40 5 40 10 0 6 -18 10 -40 10 -22
0 -40 -4 -40 -10z"/>
<path d="M480 590 c0 -5 14 -10 30 -10 17 0 30 5 30 10 0 6 -13 10 -30 10 -16
0 -30 -4 -30 -10z"/>
<path d="M240 341 c0 -60 3 -81 13 -81 18 0 140 74 145 88 3 10 -83 55 -131
67 l-27 7 0 -81z"/>
<path d="M837 703 c5 -16 8 -58 7 -95 -1 -77 11 -90 21 -24 9 57 -7 146 -26
146 -5 0 -6 -11 -2 -27z"/>
<path d="M805 630 c0 -59 7 -75 19 -44 12 32 4 104 -13 104 -3 0 -6 -27 -6
-60z"/>
</g>
</svg>
