<?xml version="1.0" standalone="no"?>
<!DOCTYPE svg PUBLIC "-//W3C//DTD SVG 20010904//EN"
 "http://www.w3.org/TR/2001/REC-SVG-20010904/DTD/svg10.dtd">
<svg version="1.0" xmlns="http://www.w3.org/2000/svg"
 width="73.000000pt" height="72.000000pt" viewBox="0 0 73.000000 72.000000"
 preserveAspectRatio="xMidYMid meet">

<g transform="translate(0.000000,72.000000) scale(0.100000,-0.100000)"
fill="#000000" stroke="none">
<path d="M482 658 c-13 -13 -16 -85 -6 -112 3 -9 17 -16 31 -16 23 0 25 -3 20
-30 -8 -37 -2 -37 48 -3 21 14 53 29 69 33 29 5 31 9 34 59 2 30 -2 59 -9 67
-15 18 -169 20 -187 2z m178 -58 c0 -43 -3 -50 -19 -50 -11 0 -36 -9 -55 -21
l-36 -21 0 21 c0 17 -6 21 -30 21 -29 0 -30 2 -30 43 0 24 3 47 7 50 3 4 42 7
85 7 l78 0 0 -50z"/>
<path d="M510 620 c0 -6 28 -10 65 -10 37 0 65 4 65 10 0 6 -28 10 -65 10 -37
0 -65 -4 -65 -10z"/>
<path d="M515 580 c-4 -6 12 -10 40 -10 28 0 44 4 40 10 -3 6 -21 10 -40 10
-19 0 -37 -4 -40 -10z"/>
<path d="M620 580 c0 -5 5 -10 10 -10 6 0 10 5 10 10 0 6 -4 10 -10 10 -5 0
-10 -4 -10 -10z"/>
<path d="M269 624 c-61 -18 -141 -91 -172 -156 -18 -37 -26 -46 -30 -33 -4 9
-11 13 -17 10 -7 -4 -4 -17 7 -36 20 -34 20 -34 56 -11 27 18 28 36 1 25 -19
-7 -18 1 5 45 49 97 169 161 272 148 28 -4 49 -3 49 2 0 25 -101 28 -171 6z"/>
<path d="M325 563 c-33 -9 -65 -35 -82 -66 -17 -33 -20 -157 -4 -167 9 -5 61
-77 61 -84 0 -2 -18 -6 -41 -10 -24 -4 -50 -16 -63 -31 -21 -23 -24 -23 -39
-8 -16 16 -15 19 5 40 l22 23 -40 41 -39 40 -33 -37 c-50 -59 -45 -75 61 -181
111 -110 127 -115 189 -53 l40 40 100 0 c98 0 99 0 93 23 -24 78 -57 107 -123
107 -24 0 -24 1 -8 19 10 11 28 21 40 23 19 3 21 10 24 95 3 113 -10 146 -71
174 -43 19 -56 21 -92 12z m81 -29 c39 -19 64 -59 64 -103 l0 -30 -42 15 c-23
8 -47 19 -55 25 -9 8 -17 8 -26 0 -8 -6 -32 -17 -55 -25 l-42 -15 0 37 c0 46
22 80 64 98 41 17 51 17 92 -2z m-4 -131 c37 -16 39 -19 36 -58 -3 -38 -4 -40
-40 -43 -44 -4 -52 -22 -10 -22 21 0 24 -2 12 -10 -26 -17 -73 -11 -97 12 -17
16 -23 33 -23 63 0 37 4 43 33 57 43 21 44 21 89 1z m-252 -146 c0 -6 -11 0
-25 13 -14 13 -25 28 -25 33 0 6 11 0 25 -13 14 -13 25 -28 25 -33z m-44 2
c10 -12 18 -29 16 -38 -3 -22 92 -115 111 -108 8 3 25 -5 38 -19 20 -21 21
-26 9 -34 -30 -19 -47 -9 -134 79 -78 78 -88 92 -82 115 8 32 17 33 42 5z
m264 -34 c-10 -12 -16 -13 -26 -4 -20 16 -18 19 12 19 22 0 25 -2 14 -15z
m-35 -25 l22 -20 18 20 c35 39 127 18 144 -32 6 -17 11 -33 11 -34 0 -2 -46
-4 -102 -4 -90 0 -104 2 -124 21 l-23 21 -27 -21 c-25 -19 -29 -20 -43 -7 -11
12 -12 20 -3 40 17 38 93 48 127 16z m-30 -80 c10 -11 15 -23 12 -27 -8 -7
-47 25 -47 39 0 14 16 9 35 -12z"/>
<path d="M595 448 c-18 -32 -14 -48 9 -29 12 10 15 4 21 -37 7 -55 -7 -120
-36 -169 -12 -19 -16 -34 -10 -38 6 -3 23 18 38 47 22 44 27 66 27 131 1 55 4
77 13 77 22 0 14 14 -16 31 -28 16 -29 16 -46 -13z"/>
</g>
</svg>
