<?xml version="1.0" standalone="no"?>
<!DOCTYPE svg PUBLIC "-//W3C//DTD SVG 20010904//EN"
 "http://www.w3.org/TR/2001/REC-SVG-20010904/DTD/svg10.dtd">
<svg version="1.0" xmlns="http://www.w3.org/2000/svg"
 width="256.000000pt" height="256.000000pt" viewBox="0 0 256.000000 256.000000"
 preserveAspectRatio="xMidYMid meet">

<g transform="translate(0.000000,256.000000) scale(0.100000,-0.100000)"
fill="#000000" stroke="none">
<path d="M1215 2163 c-16 -8 -41 -26 -55 -39 -25 -23 -27 -23 -325 -26 -287
-3 -302 -4 -341 -25 -60 -32 -88 -70 -167 -230 -62 -124 -75 -143 -99 -149
-41 -8 -85 -49 -98 -90 -23 -68 11 -143 77 -170 l33 -14 0 -400 0 -400 -48 0
c-26 0 -53 -5 -60 -12 -17 -17 -17 -359 0 -376 17 -17 2279 -17 2296 0 17 17
17 359 0 376 -7 7 -34 12 -60 12 l-48 0 0 399 0 399 30 12 c99 41 117 173 33
238 -25 20 -55 67 -108 173 -82 163 -109 200 -169 232 -39 21 -53 22 -360 25
l-320 3 -34 30 c-59 52 -119 63 -177 32z m377 -341 c265 -264 278 -279 278
-315 0 -56 -33 -83 -95 -77 -11 1 -121 102 -250 231 -127 126 -237 229 -245
229 -8 0 -118 -103 -245 -230 -132 -132 -239 -230 -250 -231 -79 -5 -119 40
-91 104 8 18 135 152 283 300 246 244 272 267 303 267 31 0 57 -23 312 -278z
m-697 38 l-160 -160 -192 0 c-106 0 -193 2 -193 5 0 3 29 63 65 134 60 121 87
156 135 174 8 3 125 6 260 6 l245 1 -160 -160z m1193 132 c24 -17 51 -60 97
-153 36 -71 65 -131 65 -134 0 -3 -96 -5 -213 -5 l-212 0 -160 160 -160 161
275 -3 c270 -3 276 -3 308 -26z m-593 -412 c115 -115 222 -214 237 -221 l28
-11 0 -444 0 -444 -54 0 -55 0 -3 229 c-3 229 -3 229 -28 256 -41 44 -72 55
-161 55 l-82 0 41 38 c61 57 72 91 72 232 0 99 -3 127 -19 158 -83 162 -299
162 -382 0 -16 -31 -19 -59 -19 -158 0 -141 11 -175 72 -232 l41 -38 -82 0
c-89 0 -120 -11 -161 -55 -25 -27 -25 -27 -28 -256 l-3 -229 -55 0 -54 0 0
444 0 444 28 11 c15 7 122 106 237 221 116 116 212 210 215 210 3 0 99 -94
215 -210z m-864 14 c-11 -14 -23 -41 -27 -60 l-6 -34 -179 0 c-166 0 -180 1
-199 20 -11 11 -20 29 -20 40 0 11 9 29 20 40 19 19 33 20 226 20 l205 0 -20
-26z m1709 6 c11 -11 20 -29 20 -40 0 -11 -9 -29 -20 -40 -19 -19 -33 -20
-199 -20 l-179 0 -6 34 c-4 19 -16 46 -27 60 l-20 26 205 0 c193 0 207 -1 226
-20z m-1001 -144 c55 -29 56 -41 4 -74 -53 -34 -169 -76 -188 -68 -16 6 -4 78
16 102 41 50 114 67 168 40z m-698 -60 c10 -13 32 -29 49 -36 l30 -12 0 -444
0 -444 -40 0 -40 0 0 68 c0 40 -5 73 -12 80 -8 8 -58 12 -160 12 l-148 0 0
400 0 400 151 0 c147 0 152 -1 170 -24z m1599 -376 l0 -400 -148 0 c-102 0
-152 -4 -160 -12 -7 -7 -12 -40 -12 -80 l0 -68 -40 0 -40 0 0 443 0 443 35 17
c19 9 40 26 47 37 12 19 23 20 165 20 l153 0 0 -400z m-820 295 c0 -9 -9 -15
-21 -15 -18 0 -19 2 -9 15 7 8 16 15 21 15 5 0 9 -7 9 -15z m-99 -75 c24 -11
57 -20 73 -20 27 0 28 -1 21 -36 -12 -65 -41 -96 -106 -114 -70 -20 -159 46
-159 119 l0 38 63 15 c34 9 63 16 63 17 1 0 21 -8 45 -19z m-26 -275 c0 -10
-5 -20 -11 -22 -13 -4 -27 24 -18 38 9 15 29 4 29 -16z m-85 -74 c25 -25 29
-37 32 -96 2 -52 7 -71 21 -79 34 -21 52 4 55 79 3 59 7 71 32 96 26 27 34 29
104 29 118 0 116 5 116 -245 l0 -205 -35 0 c-19 0 -38 0 -42 0 -5 0 -10 43
-13 96 -4 78 -8 99 -22 108 -13 8 -23 8 -35 0 -15 -9 -18 -29 -21 -113 l-3
-101 -119 0 -119 0 -3 101 c-3 84 -6 104 -20 113 -13 8 -23 8 -35 0 -15 -9
-18 -29 -21 -113 l-3 -101 -44 0 -45 0 0 210 c0 256 -3 250 116 250 70 0 78
-2 104 -29z m-650 -391 l0 -40 -180 0 -180 0 0 40 0 40 180 0 180 0 0 -40z
m1800 0 l0 -40 -180 0 -180 0 0 40 0 40 180 0 180 0 0 -40z m0 -160 l0 -40
-1080 0 -1080 0 0 40 0 40 1080 0 1080 0 0 -40z"/>
<path d="M412 1168 c-17 -17 -17 -439 0 -456 16 -16 200 -16 216 0 17 17 17
439 0 456 -16 16 -200 16 -216 0z m148 -228 l0 -160 -40 0 -40 0 0 160 0 160
40 0 40 0 0 -160z"/>
<path d="M1932 1168 c-17 -17 -17 -439 0 -456 16 -16 200 -16 216 0 17 17 17
439 0 456 -16 16 -200 16 -216 0z m148 -228 l0 -160 -40 0 -40 0 0 160 0 160
40 0 40 0 0 -160z"/>
</g>
</svg>
